<svg width="14" height="13" viewBox="0 0 14 13" fill="none" xmlns="http://www.w3.org/2000/svg">
<path d="M11.3125 0.664078C12.1094 0.195328 13.1172 0.875015 12.9766 1.81252L11.5938 10.8828C11.5234 11.2344 11.3359 11.5156 11.0312 11.7031C10.8438 11.7969 10.6562 11.8438 10.4688 11.8438C10.3281 11.8438 10.1875 11.8203 10.0469 11.75L7.42188 10.6719L6.39062 12.0547C5.75781 12.9219 4.375 12.4766 4.375 11.375V9.40627L1.67969 8.3047C0.8125 7.95314 0.742188 6.75783 1.5625 6.28908L11.3125 0.664078ZM5.5 11.375L6.34375 10.2266L5.5 9.87502V11.375ZM10.4688 10.7188L11.875 1.62502L2.125 7.25002L4.63281 8.3047L9.60156 3.9922C9.92969 3.68752 10.3984 4.10939 10.1641 4.48439L6.85938 9.21877L10.4688 10.7188Z" fill="white"/>
</svg>
